<svg xmlns="http://www.w3.org/2000/svg" id="Layer_1" width="256" height="256" data-name="Layer 1" viewBox="0 0 256 256"><path fill="#fff" d="M129.5-1L235 63.3v128.5L129.5 256 24 191.8V63.3L129.5-1z"/><path fill="#fff" d="M71.7 175a1.9 1.9 0 0 1-2-2.1v-25.6H43.3a2.1 2.1 0 0 1 0-4.2h15v-13.7a1.9 1.9 0 0 1 2-2.1h7.8c6.6-29.4 31.6-51.1 61.2-51.3.2-.2.4-.2.8 0 29.6.2 54.2 22.2 60.8 51.3h7.8a1.9 1.9 0 0 1 2 2.1v13.7h15a2.1 2.1 0 0 1 0 4.2h-26.4v25.5a1.9 1.9 0 0 1-2 2.1zm-9.4-43.5v11.6h134.4v-11.6zm63.2-51.1c-25.6 1.7-47 21.3-53.2 46.9h21.4zm-51.8 66.9v23.4h53.8v-23.4zm53.8-62.7l-28.8 42.7h28.8zm4-4.4v47.1h55.2c-6.2-26.2-28.6-46-55.2-47.1zm0 67.1v23.4h9v-23.4zm13 0v23.4h40.8v-23.4z"/></svg>