<svg xmlns="http://www.w3.org/2000/svg"><symbol id="domes" viewBox="0 0 256 256"><path fill="#fff" d="M129.5-1L235 63.3v128.5L129.5 256 24 191.8V63.3L129.5-1z"/><path fill="#fff" d="M71.7 175a1.9 1.9 0 0 1-2-2.1v-25.6H43.3a2.1 2.1 0 0 1 0-4.2h15v-13.7a1.9 1.9 0 0 1 2-2.1h7.8c6.6-29.4 31.6-51.1 61.2-51.3.2-.2.4-.2.8 0 29.6.2 54.2 22.2 60.8 51.3h7.8a1.9 1.9 0 0 1 2 2.1v13.7h15a2.1 2.1 0 0 1 0 4.2h-26.4v25.5a1.9 1.9 0 0 1-2 2.1zm-9.4-43.5v11.6h134.4v-11.6zm63.2-51.1c-25.6 1.7-47 21.3-53.2 46.9h21.4zm-51.8 66.9v23.4h53.8v-23.4zm53.8-62.7l-28.8 42.7h28.8zm4-4.4v47.1h55.2c-6.2-26.2-28.6-46-55.2-47.1zm0 67.1v23.4h9v-23.4zm13 0v23.4h40.8v-23.4z"/></symbol><symbol id="space-bubbles" viewBox="0 0 256 256"><path fill="#fff" d="M127-1l111.7 64.5v129L127 257 15.3 192.5v-129L127-1z"/><path fill="#fff" d="M63.9 180.3l-4.9-7a2.2 2.2 0 0 1 .2-2.5L76.8 150h-8.7a2 2 0 0 1-2.1-2.1v-15.2a2 2 0 0 1 2.1-2.1h12.3a59.2 59.2 0 0 1-2.3-16.1 50.1 50.1 0 0 1 100.2 0 52 52 0 0 1-2.3 16.1h12.3a2 2 0 0 1 2.1 2.1V148a2 2 0 0 1-2.1 2.1h-10.9l17.4 20.8a2.2 2.2 0 0 1 0 2.5l-4.9 7a2.2 2.2 0 0 1-2.8.6l-10.1-5.3H76.8L66.6 181a2.3 2.3 0 0 1-2.7-.7zM96.1 150h-14l-18.6 22 3 4.2 35.8-18.9zm-25.9-15.2v11h115.9v-11zm14.6-4.2h86.7a51.2 51.2 0 0 0 2.5-16.1 45.9 45.9 0 0 0-91.7 0c0 5.4.4 11.2 2.5 16zm20.3 30.3L85 171.4h28.8zm-3.5-10.9l17.8 21.4h15.3l17.7-21.4zm47.2 10.8l-8.7 10.6h28.8zm23.1-10.8h-14l-6.4 7.4 36 18.9 3-4z"/></symbol><symbol id="stilts" viewBox="0 0 256 256"><path fill="#fff" d="M129 0l111.3 64.3v128.5L129 257 17.7 192.8V64.3L129 0z"/><path fill="#fff" d="M64.4 176a2.1 2.1 0 1 1 0-4.2H75v-13.3H64.4a2 2 0 0 1-2.1-2.1v-41.6a2 2 0 0 1 2.1-2.1h13.9c1.1-30 23.4-46.4 50.7-46.4s49.6 16.5 50.6 46.4h13.9a2 2 0 0 1 2.1 2.1v41.6a2 2 0 0 1-2.1 2.1H183v13.3h10.6a2.1 2.1 0 1 1 0 4.2zm2.1-59.1v37.4h125v-37.4zm12.7 41.6v13.3h13.5v-13.3zm3.4-45.8h92.9c-1.1-27.2-21.7-42.2-46.4-42.2s-45.5 14.9-46.5 42.2zM97 158.5v13.3h21v-13.3zm25.3 0v13.3h13.5v-13.3zm57.2-14.4h-51.6a2.1 2.1 0 1 1 0-4.2h51.5a2.1 2.1 0 0 1 0 4.2zM140 158.5v13.3h21.1v-13.3zm25.3 0v13.3h13.5v-13.3z"/></symbol></svg>