<svg xmlns="http://www.w3.org/2000/svg" id="Layer_1" width="256" height="256" data-name="Layer 1" viewBox="0 0 256 256"><path fill="#fff" d="M127-1l111.7 64.5v129L127 257 15.3 192.5v-129L127-1z"/><path fill="#fff" d="M63.9 180.3l-4.9-7a2.2 2.2 0 0 1 .2-2.5L76.8 150h-8.7a2 2 0 0 1-2.1-2.1v-15.2a2 2 0 0 1 2.1-2.1h12.3a59.2 59.2 0 0 1-2.3-16.1 50.1 50.1 0 0 1 100.2 0 52 52 0 0 1-2.3 16.1h12.3a2 2 0 0 1 2.1 2.1V148a2 2 0 0 1-2.1 2.1h-10.9l17.4 20.8a2.2 2.2 0 0 1 0 2.5l-4.9 7a2.2 2.2 0 0 1-2.8.6l-10.1-5.3H76.8L66.6 181a2.3 2.3 0 0 1-2.7-.7zM96.1 150h-14l-18.6 22 3 4.2 35.8-18.9zm-25.9-15.2v11h115.9v-11zm14.6-4.2h86.7a51.2 51.2 0 0 0 2.5-16.1 45.9 45.9 0 0 0-91.7 0c0 5.4.4 11.2 2.5 16zm20.3 30.3L85 171.4h28.8zm-3.5-10.9l17.8 21.4h15.3l17.7-21.4zm47.2 10.8l-8.7 10.6h28.8zm23.1-10.8h-14l-6.4 7.4 36 18.9 3-4z"/></svg>