<svg xmlns="http://www.w3.org/2000/svg" id="Layer_1" width="256" height="256" data-name="Layer 1" viewBox="0 0 256 256"><path fill="#fff" d="M129 0l111.3 64.3v128.5L129 257 17.7 192.8V64.3L129 0z"/><path fill="#fff" d="M64.4 176a2.1 2.1 0 1 1 0-4.2H75v-13.3H64.4a2 2 0 0 1-2.1-2.1v-41.6a2 2 0 0 1 2.1-2.1h13.9c1.1-30 23.4-46.4 50.7-46.4s49.6 16.5 50.6 46.4h13.9a2 2 0 0 1 2.1 2.1v41.6a2 2 0 0 1-2.1 2.1H183v13.3h10.6a2.1 2.1 0 1 1 0 4.2zm2.1-59.1v37.4h125v-37.4zm12.7 41.6v13.3h13.5v-13.3zm3.4-45.8h92.9c-1.1-27.2-21.7-42.2-46.4-42.2s-45.5 14.9-46.5 42.2zM97 158.5v13.3h21v-13.3zm25.3 0v13.3h13.5v-13.3zm57.2-14.4h-51.6a2.1 2.1 0 1 1 0-4.2h51.5a2.1 2.1 0 0 1 0 4.2zM140 158.5v13.3h21.1v-13.3zm25.3 0v13.3h13.5v-13.3z"/></svg>